<?xml version="1.0" encoding="UTF-8" standalone="no"?>
<svg
   viewBox="0 0 1024 1024"
   version="1.1"
   id="svg16"
   sodipodi:docname="icon-medium.svg"
   xml:space="preserve"
   inkscape:version="1.4.3 (0d15f75, 2025-12-25)"
   inkscape:export-filename="icon-medium.png"
   inkscape:export-xdpi="24"
   inkscape:export-ydpi="24"
   xmlns:inkscape="http://www.inkscape.org/namespaces/inkscape"
   xmlns:sodipodi="http://sodipodi.sourceforge.net/DTD/sodipodi-0.dtd"
   xmlns:xlink="http://www.w3.org/1999/xlink"
   xmlns="http://www.w3.org/2000/svg"
   xmlns:svg="http://www.w3.org/2000/svg"
   xmlns:bx="https://boxy-svg.com"><sodipodi:namedview
     id="namedview16"
     pagecolor="#ffffff"
     bordercolor="#000000"
     borderopacity="0.25"
     inkscape:showpageshadow="2"
     inkscape:pageopacity="0.0"
     inkscape:pagecheckerboard="0"
     inkscape:deskcolor="#d1d1d1"
     inkscape:zoom="0.21367142"
     inkscape:cx="898.57597"
     inkscape:cy="819.01456"
     inkscape:window-width="1470"
     inkscape:window-height="895"
     inkscape:window-x="0"
     inkscape:window-y="30"
     inkscape:window-maximized="0"
     inkscape:current-layer="svg16" /><defs
     id="defs12"><filter
       id="shadow"
       bx:pinned="true"
       x="-0.0018203883"
       y="-0.0018203773"
       width="1.0036408"
       height="1.0036408"><title
         id="title1">Drop Shadow</title><feDropShadow
         result="drop-shadow-0"
         in="SourceGraphic"
         style="flood-opacity: 0.3;"
         stdDeviation="10"
         dx="0"
         dy="10" /></filter><bx:guide
       x="-10"
       y="100"
       angle="90" /><bx:guide
       x="100"
       y="-10"
       angle="0" /><bx:guide
       x="924"
       y="-10"
       angle="0" /><bx:guide
       x="-10"
       y="924"
       angle="90" /><clipPath
       id="clip-0"><path
         style="stroke-width: 3px; fill: rgb(255, 255, 255);"
         d="M 100 724 L 100 300 C 100 185.001 170 99.995 300.026 100 L 724 99.995 C 854 100 924 185.001 924 300 L 924 724 C 924 839.001 854 923.995 724 924 L 300.026 924 C 170 924 100 839.001 100 724 Z"
         id="path2"><title
           id="title2">Icon Mask</title></path></clipPath><symbol
       id="symbol-0"
       viewBox="0 0 1024 1024"
       bx:pinned="true"><title
         id="title3">App Icon Guides</title><g
         style=""
         transform="matrix(1, 0, 0, 1, 0, 0)"
         id="g12"><title
           id="title4">App Icon Guides</title><path
           style="fill: none; stroke: rgb(145, 145, 145); stroke-width: 3px;"
           d="M 0 739.001 L 0 285.001 C 0 135.001 112 0 284.999 0 L 739.001 0 C 912 0 1024 135.001 1024 285.001 L 1024 739.001 C 1024 889.001 912 1024 739.001 1024 L 284.999 1024 C 112 1024 0 889.001 0 739.001 Z"
           id="path5"><title
             id="title5">Outer Bounding Box</title></path><path
           style="stroke: rgb(145, 145, 145); fill: none; stroke-width: 3px;"
           d="M 50 739.001 L 50 285.001 C 50 162 140 50 284.999 50 L 739.001 50 C 884.001 50 974 162 974 285.001 L 974 739.001 C 974 862 884.001 974 739.001 974 L 284.999 974 C 140 974 50 862 50 739.001 Z"
           id="path6"><title
             id="title6">Inner Bounding Box</title></path><path
           style="fill: none; stroke: rgb(255, 0, 0); stroke-width: 3px;"
           d="M 100 724.005 L 100 300.005 C 100 185.006 170 100 300.026 100.005 L 724 100 C 854 100.005 924 185.006 924 300.005 L 924 724.005 C 924 839.006 854 924 724 924.005 L 300.026 924.005 C 170 924.005 100 839.006 100 724.005 Z"
           id="path7"><title
             id="title7">Icon Grid Bounding Box</title></path><path
           style="fill: none; stroke: rgb(255, 0, 0);"
           d="M 154.017 870.001 L 870.001 870.001 L 870.001 154.014 L 154.017 154.014 L 154.017 870.001 Z M 154.017 870.001 L 870.001 154.014 L 154.017 870.001 Z M 100 511.995 L 924 511.995 L 100 511.995 Z M 100 669.36 L 924 669.36 L 100 669.36 Z M 924 354.631 L 100 354.631 L 924 354.631 Z M 669.365 99.995 L 669.365 923.995 L 669.365 99.995 Z M 354.635 923.995 L 354.635 99.995 L 354.635 923.995 Z M 512 99.995 L 512 923.995 L 512 99.995 Z M 154.017 154.014 L 870.001 870.001 L 154.017 154.014 Z"
           id="path8"><title
             id="title8">Icon Grid</title></path><circle
           style="fill: none; stroke: rgba(255, 0, 0, 0.6);"
           cx="512"
           cy="511.995"
           r="157.397"
           id="circle9"><title
             id="title9">Grid Circle 1</title></circle><circle
           style="fill: none; stroke: rgba(255, 0, 0, 0.6);"
           cx="512"
           cy="511.995"
           r="222.577"
           id="circle10"><title
             id="title10">Grid Circle 2</title></circle><circle
           style="fill: none; stroke: rgba(255, 0, 0, 0.6);"
           cx="512"
           cy="511.995"
           r="358.001"
           id="circle11"><title
             id="title11">Grid Circle 3</title></circle><path
           d="M 1084.343 548.001 L 143.343 548.001 C 114.624 548.001 91.343 524.72 91.343 496.001 C 91.343 467.282 114.624 444.001 143.343 444.001 L 1084.343 444.001 C 1113.062 444.001 1136.343 467.282 1136.343 496.001 C 1136.343 524.72 1113.062 548.001 1084.343 548.001 Z M 1136.3 496.039 L 91.3 495.961"
           style="stroke-width: 5px; fill: rgba(0, 195, 255, 0.37); stroke: rgb(0, 119, 255); stroke-dasharray: 24, 10;"
           transform="matrix(0.430444, -0.902617, 0.902617, 0.430444, -98.093403, 836.54613)"
           id="path12"><title
             id="title12">Tool Angle</title></path></g></symbol></defs><use
     width="1024"
     height="1024"
     style="display:none"
     xlink:href="#symbol-0"
     id="use16"><title
       id="title16">App Icon Guides</title></use><rect
     style="display:none;opacity:1;fill:#241f1c;stroke:#ffffff;stroke-width:16.544;stroke-linejoin:round;stroke-dasharray:none;stroke-opacity:1"
     id="rect3"
     width="3022.1108"
     height="2105.9341"
     x="-846.19098"
     y="-439.00134"
     ry="4.3979025"
     inkscape:label="black-bg-test" /><rect
     style="display:inline;opacity:1;fill:#43423d;stroke:none;stroke-width:10.34399948;fill-opacity:1;stroke-opacity:1;stroke-dasharray:none"
     id="rect1"
     width="821.25592"
     height="821.25592"
     x="101.37204"
     y="101.37204"
     ry="182.20595"
     inkscape:label="rounded-rect" /><path
     style="display:inline;fill:#ffffff;stroke-width:0.592849;fill-opacity:1"
     d="m 205.87265,503.63202 c -4.16925,-1.08517 -7.05339,-3.45206 -9.83586,-8.0719 -1.42663,-2.36866 -1.42818,-2.39095 -1.34249,-19.33815 0.091,-17.99356 -8.3e-4,-17.35944 3.25765,-22.45773 2.07005,-3.23866 2.98536,-3.77059 31.63469,-18.38445 4.56493,-2.32855 8.70006,-4.57908 9.18916,-5.00117 0.4891,-0.42209 2.62336,-1.53043 4.7428,-2.46298 2.11943,-0.93254 5.02027,-2.36774 6.4463,-3.18934 2.33421,-1.34483 12.58645,-6.69152 32.97818,-17.19859 3.91281,-2.01612 7.39107,-3.89501 7.72949,-4.17531 0.33841,-0.28031 3.5398,-2.01183 7.11419,-3.84783 3.57439,-1.83601 7.43264,-3.83977 8.57388,-4.45282 1.14123,-0.61304 3.05604,-1.59289 4.25513,-2.17745 1.19909,-0.58455 5.7344,-2.89954 10.07844,-5.14439 21.94737,-11.34168 28.615,-14.95106 28.80786,-15.59452 0.12521,-0.41778 -10.23967,-5.92511 -25.44639,-13.52079 -14.11171,-7.04874 -25.94307,-13.05275 -26.29191,-13.34226 -0.34884,-0.28951 -12.36323,-6.42739 -26.69865,-13.63972 -34.10089,-17.15661 -58.42899,-29.53367 -62.68621,-31.892 -1.88224,-1.04269 -3.82237,-1.89578 -4.31141,-1.89578 -1.34001,0 -6.07133,-4.61254 -7.87053,-7.67294 l -1.58845,-2.70193 -0.19627,-15.11765 c -0.24931,-19.20397 -0.0929,-20.50285 2.908,-24.14339 5.39848,-6.54921 11.06089,-7.68719 19.63962,-3.94703 2.70585,1.1797 5.3199,2.48029 5.80899,2.89019 0.48911,0.40991 8.0924,4.40897 16.89621,8.88681 20.15256,10.25011 36.4493,18.60901 57.20997,29.34409 8.96685,4.63664 25.50735,13.09409 36.75667,18.79433 20.22938,10.2506 23.16612,11.75397 24.89968,12.74655 0.4891,0.28004 6.09153,3.13772 12.44983,6.35038 6.35832,3.21266 18.6303,9.50556 27.27108,13.98423 8.64078,4.47866 18.51173,9.59476 21.93543,11.3691 6.9574,3.60568 10.14158,6.33584 11.99042,10.28075 1.05854,2.25863 1.29004,4.09682 1.50938,11.98457 0.3107,11.17351 -0.38173,14.1764 -4.33758,18.8108 -2.63338,3.08507 -2.46822,2.98655 -22.30571,13.30602 -4.45736,2.31871 -11.79387,6.18326 -16.30337,8.58789 -4.5095,2.40462 -12.60099,6.64424 -17.98109,9.42137 -21.02489,10.8527 -27.89288,14.41961 -36.39539,18.90209 -19.79685,10.43678 -24.2125,12.74298 -33.85728,17.68296 -5.54314,2.83916 -10.34521,5.37245 -10.67129,5.62952 -0.32606,0.25708 -4.59457,2.53214 -9.48558,5.05568 -17.9083,9.23988 -22.54065,11.67142 -23.12113,12.13639 -0.32607,0.26118 -5.66171,3.07688 -11.85699,6.25712 -6.19528,3.18024 -14.8657,7.65758 -19.26761,9.94961 -4.40191,2.29205 -9.20399,4.7782 -10.67129,5.52479 -2.9078,1.47955 -8.70237,2.2188 -11.56057,1.47488 z"
     id="path1"
     inkscape:label="greater-than" /><path
     style="display:inline;fill:#ffffff;stroke-width:0.592849;fill-opacity:1"
     d="m 473.09466,826.46813 c -3.72461,-1.46552 -5.23862,-2.87845 -7.11131,-6.63647 -1.4347,-2.87905 -1.485,-3.37829 -1.485,-14.73961 0,-12.60504 0.22377,-13.83692 3.33089,-18.33651 0.94767,-1.37238 2.55605,-2.62397 4.38063,-3.40889 l 2.88314,-1.2403 h 184.63138 126.63135 l 2.8423,1.44029 c 1.56322,0.79216 3.62189,2.45954 4.57484,3.70531 l 1.7326,2.26503 0.18361,13.33911 c 0.10096,7.33651 0.0255,14.18935 -0.16807,15.22862 -0.19345,1.0392 -1.47655,3.24058 -2.85144,4.8919 -1.94662,2.33808 -2.99453,3.08501 -4.73603,3.3758 -1.22999,0.20536 -2.37958,0.60512 -2.55459,0.88839 -0.17869,0.28907 -55.36763,0.48839 -125.81917,0.4543 -123.33244,-0.0596 -183.5521,-0.0808 -186.46513,-1.22697 z"
     id="path23"
     inkscape:label="underscore"
     sodipodi:nodetypes="ssssscccsscsssssss" /><g
     id="g17"
     transform="matrix(0.95909476,0,0,0.95909476,223.23073,-21.160848)"
     inkscape:label="mouse"
     style="display:inline;opacity:1"><path
       id="path18"
       style="display:inline;fill:#d38d5f"
       inkscape:label="mouse-bg"
       d="m 334.50781,90.875 c -7.74647,0.04971 -15.67716,0.947158 -23.17243,3.240537 -0.50975,0.156453 -1.18833,0.364754 -1.70547,0.535193 -7.47023,2.471514 -14.58265,5.94591 -21.34973,9.94093 -7.90225,4.71212 -14.89447,10.79215 -21.26186,17.40014 -9.33009,9.53326 -17.05538,20.60197 -23.00465,32.53164 -0.74005,1.48821 -1.5477,3.18458 -2.26299,4.77826 -2.53287,5.63196 -4.67625,11.43926 -6.39716,17.37018 -0.36736,1.26972 -0.78085,2.77437 -1.12448,4.1455 -0.55211,2.15537 -1.00085,4.17127 -1.44584,6.36426 -1.03815,5.18083 -1.74901,10.60861 -2.07031,15.77148 -0.094,1.62082 -0.16283,3.12549 -0.19131,4.78796 -0.20968,9.43364 0.95239,18.88412 3.38262,27.99986 1.78996,6.86795 4.25021,13.56697 7.42197,19.91922 0.23434,0.45788 0.61924,1.22075 0.92305,1.79518 1.92242,3.63378 4.08219,7.14208 6.4793,10.48216 0.32321,0.42608 0.82106,1.13297 1.22909,1.66215 8.37563,11.1519 19.5823,20.08468 32.16512,26.05861 2.3248,1.11608 4.87978,2.19718 7.17024,3.08393 7.61205,2.92629 15.56822,4.88118 23.61542,6.15347 1.5138,0.3644 3.30633,0.60725 4.26349,1.98325 0.36805,0.76463 0.2637,1.61638 -0.13914,2.34956 -1.76618,3.48466 -4.12423,6.63158 -5.88557,10.12176 -3.81726,7.26556 -7.05854,14.85179 -9.47725,22.6986 -1.40789,4.69352 -2.35351,9.53926 -2.50369,14.44598 -0.12261,2.5353 -0.14054,5.31208 -0.13837,7.94542 0.0699,5.92849 -0.14745,11.93233 1.09174,17.76672 1.61963,7.09452 4.23894,13.91886 7.1127,20.58933 1.62442,3.69631 3.58027,7.26846 4.7994,11.12895 0.30691,0.96985 0.0161,2.23795 -0.98009,2.66047 -1.27731,0.66114 -2.70486,-0.12107 -3.9405,-0.54696 -6.37165,-2.63494 -12.5121,-5.79475 -18.61637,-8.99149 -10.19452,-5.40913 -19.91289,-11.66105 -29.54193,-18.00813 -7.50251,-5.03418 -14.99163,-10.11312 -22.0879,-15.71278 -1.79955,-1.44516 -3.60279,-2.93852 -4.91135,-4.86405 -3.83851,-4.75582 -8.8854,-8.381 -14.17426,-11.36463 -0.37242,-0.20297 -1.06996,-0.59009 -1.57694,-0.85283 -8.08792,-4.20609 -16.88823,-7.05043 -25.90176,-8.40414 -8.20778,-1.05541 -16.56102,-0.64843 -24.71441,0.66835 -5.0339,0.89247 -10.12328,2.03322 -14.67886,4.43065 -3.20406,1.60572 -5.19756,5.10006 -5.49517,8.60555 -0.25482,2.76632 1.41495,5.24514 3.39253,7.00945 4.8695,4.42671 11.11393,6.82187 16.53711,10.4375 2.02134,1.31707 3.62015,3.24302 4.45944,5.51198 1.1166,2.63598 1.84534,5.61432 3.9809,7.65232 1.77529,1.50565 3.98233,2.39052 6.13545,3.21162 3.26069,1.07476 6.74403,0.54089 10.09699,0.35791 3.53941,-0.21388 7.19178,-0.61656 10.65881,0.35125 2.22732,0.58767 4.07217,2.43544 4.4799,4.72764 0.372,1.45485 0.023,3.03416 0.7587,4.40243 1.76598,3.83748 4.34488,7.22278 6.77703,10.65326 4.43217,6.04016 9.00012,11.93697 13.66254,17.82104 12.88325,16.21142 27.24064,31.34829 41.45116,46.43078 8.85488,9.40819 17.78264,18.77932 25.89316,28.84943 5.61335,7.02543 10.82561,14.61375 13.53481,23.27514 1.48752,4.60119 2.37743,9.38399 2.68288,14.20918 0.62987,8.78199 0.51299,17.61814 -0.25997,26.38725 -0.61009,6.86694 -2.05281,13.62703 -3.55976,20.34374 -4.42456,18.9482 -10.66571,37.42778 -17.71019,55.54996 -3.38842,8.62176 -6.95163,17.17397 -10.62244,25.67875 -1.81791,4.15814 -3.81736,8.3014 -6.76162,11.79557 -7.49317,8.96711 -13.9033,18.90138 -18.42667,29.69753 -1.28599,3.04966 -2.42045,6.16251 -3.4069,9.32173 -0.17171,0.57189 -0.44827,1.46001 -0.64303,2.15862 -4.22121,14.61803 -4.89448,30.1474 -2.61462,45.15933 2.19097,14.545 6.90459,28.63967 13.19487,41.90842 7.35832,15.32289 16.7737,29.5813 27.15466,43.01166 10.36546,13.36716 21.83172,25.87044 34.14003,37.46812 1.7065,1.72506 3.71575,3.39551 4.48858,5.77674 0.6733,2.1668 -0.2178,4.3826 -1.11308,6.34094 -5.5961,12.56844 -11.89845,24.8037 -17.9485,37.15564 -4.47152,9.25214 -8.86933,18.48147 -12.70589,27.99585 -1.51734,3.89901 -2.84482,7.87659 -3.96145,11.90852 -1.49675,5.50823 -1.15653,11.26729 -1.22866,16.91416 0.0714,4.0307 -0.21013,8.2388 1.38353,12.0401 2.35527,5.7576 5.58907,11.397 10.61137,15.2303 4.76787,3.7221 10.89583,5.2945 16.87342,5.2892 7.92582,0.1205 15.86632,-2.407 22.21208,-7.1685 3.73205,-2.7598 6.94275,-6.1862 9.62934,-9.9625 0.19584,-0.2845 0.66226,-0.9402 0.94499,-1.384 2.84246,-4.2078 4.93072,-8.8994 6.29915,-13.784 0.12563,-0.4537 0.34168,-1.2634 0.50196,-1.85352 2.09181,-8.28459 2.7912,-16.82351 4.12022,-25.24376 2.4185,-16.20074 5.3424,-32.34393 9.4017,-48.22153 1.5403,-6.18099 2.81792,-12.47106 2.95886,-18.86066 0.13645,-6.02332 0.19784,-12.08376 1.21688,-18.03767 0.7059,-2.61775 0.86603,-5.3356 0.98984,-8.03286 0.0319,-1.01632 0.0909,-2.30125 0.10475,-3.42257 0.23405,-9.13281 -0.55872,-18.31406 0.59259,-27.40726 0.57171,-4.69027 2.13513,-9.28656 4.83503,-13.18636 2.1948,-3.50392 5.33699,-6.33374 8.89145,-8.4135 6.954,-4.07095 14.95423,-6.00422 22.91209,-6.82555 9.08457,-0.85157 18.41739,-0.25364 27.11788,2.62412 5.12259,1.70701 9.99841,4.42893 13.66473,8.44874 3.62216,3.76775 5.93947,8.67441 6.81312,13.80933 1.00224,5.50616 0.64754,11.12703 0.63256,16.69121 -0.19449,8.77371 -0.50195,17.58146 -1.90487,26.25865 -0.42067,2.62222 -1.11346,5.19179 -2.07374,7.66742 -1.80582,5.27592 -2.11129,10.91884 -1.93716,16.45108 0.0512,1.66522 0.15303,3.54678 0.28414,5.29238 0.9051,11.84487 2.87037,23.57222 4.16228,35.37504 1.02886,9.01613 1.99017,18.13709 2.58483,27.13531 0.686,8.29784 1.3294,16.70327 3.83667,24.69036 2.54033,7.8546 6.62268,15.3034 12.47258,21.1847 5.81395,5.9078 13.42324,10.3244 21.74281,11.3036 6.90901,0.8686 14.09815,-0.5819 20.09247,-4.1376 0.31825,-0.184 0.99549,-0.6077 1.28937,-0.8025 5.40712,-3.5193 9.57255,-8.8285 11.83015,-14.8619 2.65771,-6.5175 3.46025,-13.6901 2.78091,-20.67099 -0.96387,-9.9066 -4.11675,-19.43646 -7.62753,-28.69646 -2.94916,-7.67134 -6.35102,-15.26341 -9.46806,-22.92973 -3.68682,-9.05832 -7.44011,-18.11675 -10.23321,-27.5001 -1.42287,-4.94576 -2.42765,-9.99894 -3.64389,-14.99734 5.18457,-4.04361 10.31467,-8.16435 15.16027,-12.61305 8.63571,-7.85114 16.84028,-16.29587 24.60145,-24.93383 9.42304,-10.58362 18.4486,-21.57181 26.2763,-33.40028 2.5216,-3.77071 4.62559,-7.88234 7.79401,-11.17394 1.23547,-1.15536 3.03872,-1.22895 4.59876,-1.6477 4.37614,-0.91718 8.84477,-1.35701 13.16575,-2.54234 8.4169,-2.16064 16.64602,-5.08595 24.51931,-8.76557 2.99249,-1.40843 5.89964,-3.02923 8.67447,-4.70485 13.96928,-8.42473 25.99332,-20.1472 34.41692,-34.14386 2.47152,-4.09038 4.64553,-8.35988 6.50565,-12.76208 0.68998,-1.63363 1.41826,-3.48094 2.04037,-5.22841 1.86633,-5.29333 3.43152,-10.71548 4.35458,-16.25732 0.49798,-3.23275 0.64103,-6.51625 0.70187,-9.72048 0.1172,-9.78346 0.18032,-19.76735 -2.65704,-29.22976 -0.54106,-1.84511 -1.15843,-3.62639 -1.82691,-5.35974 -1.77501,-4.48762 -3.78928,-8.8917 -6.14656,-13.10443 -5.91644,-10.23663 -14.49543,-18.97118 -24.7511,-24.88066 -5.94974,-3.35559 -12.55928,-5.83855 -19.43433,-6.1764 -3.24017,-0.16208 -6.60432,0.69234 -9.09729,2.84001 -1.38368,1.25889 -2.93075,2.57469 -3.50586,4.41992 -0.43956,2.04706 -0.35417,4.17474 -0.21287,6.25165 0.17407,2.40522 1.2906,4.70099 3.11131,6.28936 3.40637,3.06195 7.6925,4.85299 11.447,7.41979 4.41076,2.829 8.42245,6.36637 11.36944,10.72817 3.53247,4.99206 6.04349,10.73703 7.00402,16.79255 0.93641,5.91005 0.98887,11.96036 0.25733,17.89653 -1.5131,12.19964 -6.92156,23.82994 -15.09477,32.99257 -4.69096,5.25988 -10.16851,9.86622 -16.36592,13.25434 -3.60723,1.97837 -7.29129,3.91432 -11.25186,5.08402 -1.32026,0.37921 -3.08012,0.523 -3.96702,-0.75171 -0.96111,-1.58169 -0.755,-3.54196 -0.82391,-5.31897 0.065,-4.26834 0.61269,-8.52231 0.42409,-12.79622 -0.35012,-13.04192 -3.58334,-25.92128 -8.76085,-37.86363 -3.45534,-7.98188 -7.91494,-15.52139 -13.2278,-22.40665 -1.89911,-2.65157 -3.90677,-5.25589 -5.44334,-8.14016 -0.42252,-1.12193 -0.436,-2.3587 -0.75892,-3.51578 -1.53245,-7.25303 -3.31974,-14.449 -4.99499,-21.66977 3.47759,-5.38163 7.12648,-10.67618 9.97793,-16.42963 2.38272,-4.77852 4.61564,-9.71732 5.60529,-14.99649 0.92227,-4.20524 3.818,-7.55339 6.64128,-10.64758 3.21886,-3.8423 5.94473,-8.09074 8.26936,-12.52646 3.99365,-7.92746 6.59667,-16.66164 6.75552,-25.57903 0.10937,-4.42008 -0.3347,-8.84386 -1.18102,-13.18018 -0.17434,-0.9177 -0.44645,-2.09331 -0.67881,-3.10672 -2.60042,-10.61147 -7.16088,-20.63236 -12.33536,-30.21511 -7.8763,-14.36366 -17.41517,-27.80173 -28.19481,-40.12934 -1.96089,-2.21106 -4.05001,-4.53491 -5.98047,-6.85938 -0.71891,-0.81017 -1.33261,-1.70298 -1.66211,-2.74414 0.48125,-0.90921 1.16986,-1.66035 2.03328,-2.21995 4.76001,-3.53452 9.91893,-6.52261 14.43532,-10.38503 4.20403,-3.48259 8.11321,-7.31685 11.7189,-11.41455 0.89938,-1.03612 1.93972,-2.26306 2.85073,-3.40868 3.54467,-4.39578 6.63458,-9.16384 9.06412,-14.2661 3.25367,-6.40021 5.81937,-13.16759 7.32182,-20.19742 1.34028,-5.86992 2.02572,-11.87044 3.35884,-17.739 0.25457,-0.48331 0.10947,-1.41985 0.87184,-1.32722 0.88142,-0.26744 1.79137,-0.17179 2.62738,0.20419 3.79263,1.41511 7.40477,3.26861 11.208,4.66001 1.39371,0.53191 3.00627,1.12847 4.49697,1.65086 1.56284,0.54672 3.13727,1.08343 4.63629,1.55462 1.57277,0.49954 3.23686,0.99019 4.9019,1.43124 0.38441,0.0955 1.15671,0.29251 1.69588,0.39996 3.92099,0.86317 8.02363,0.95733 11.94474,1.04944 6.87251,0.0853 13.75316,0.19221 20.61914,-0.18963 1.98021,-0.12572 4.1578,-0.30242 6.20312,-0.56973 1.07942,-0.14091 1.97774,-0.27684 3.08432,-0.47133 6.29565,-1.06146 12.30622,-3.3347 18.09538,-5.97066 0.40682,-0.19991 1.14735,-0.52757 1.67923,-0.79476 2.34227,-1.13009 4.76712,-2.48179 6.89694,-3.77165 5.08267,-3.08374 9.89252,-6.60572 14.44531,-10.42578 0.88939,-0.75767 1.96727,-1.6819 2.90984,-2.52502 7.46462,-6.68243 14.20582,-14.2479 19.4332,-22.82016 2.17839,-3.49086 4.23919,-7.26921 5.98704,-10.83841 1.70417,-3.49138 3.2235,-6.97354 4.63867,-10.6211 3.60392,-9.31114 6.29365,-19.18256 7.90655,-29.11483 0.70466,-4.33239 1.22781,-8.87262 1.49894,-13.32495 0.107,-1.71483 0.1884,-3.63292 0.21823,-5.36271 0.0532,-2.75034 0.009,-5.56733 -0.12925,-8.17616 -0.49251,-8.9021 -1.93529,-17.75301 -4.27767,-26.35533 -0.35103,-1.25268 -0.77385,-2.73008 -1.1967,-4.05827 -0.5734,-1.83648 -1.19835,-3.65845 -1.83993,-5.39047 -0.79316,-2.15216 -1.67332,-4.3106 -2.57017,-6.32912 -2.92242,-6.5953 -6.5404,-12.89019 -10.86781,-18.6655 -0.45736,-0.59318 -1.09273,-1.43572 -1.63897,-2.10766 -8.27808,-10.40298 -19.21971,-18.83572 -31.77065,-23.38082 -2.88184,-1.10787 -5.9528,-1.58838 -9.00054,-1.98027 -0.44406,-0.0423 -1.1364,-0.13312 -1.61495,-0.17506 -1.17457,-0.11807 -2.3534,-0.20687 -3.59013,-0.28979 -1.40996,-0.0891 -3.0529,-0.15572 -4.55617,-0.18562 -3.58258,-0.0787 -7.24793,0.009 -10.73875,0.26961 -1.16683,0.088 -2.57974,0.21995 -3.83789,0.375 -3.5028,0.37797 -6.92052,1.26158 -10.26662,2.34124 -8.31018,2.54842 -16.2207,6.31618 -23.53604,11.00044 -10.91233,6.99544 -20.86486,15.35058 -30.68051,23.7822 -8.74741,7.52943 -17.24551,15.34134 -25.85603,23.02334 -3.62433,3.15623 -7.18711,6.39808 -11.02097,9.30083 -1.6039,1.14231 -3.20783,2.2846 -4.8117,3.42695 -6.62493,-6.39314 -13.08899,-12.99418 -20.38259,-18.64212 -1.47186,-1.15419 -2.99817,-2.30181 -4.44892,-3.33337 -6.2783,-4.50598 -13.02517,-8.34531 -20.05521,-11.54795 -1.11358,-0.50038 -2.45699,-1.09844 -3.66911,-1.61037 -9.04216,-3.78331 -18.38177,-6.84984 -27.88558,-9.24314 -1.57905,-0.39056 -3.54475,-0.86124 -5.10156,-1.2168 -4.14549,-0.98893 -8.38242,-1.50871 -12.63075,-1.78472 -8.53427,-0.59253 -17.10173,-0.70241 -25.6505,-0.39692 -0.86215,0.0513 -2.01027,0.0936 -2.98283,0.15809 -2.89349,0.13136 -5.75673,0.56411 -8.61955,0.97228 -2.10279,0.2347 -4.59904,0.48586 -6.27383,-1.08359 -1.14374,-1.24329 -1.54566,-2.9663 -2.15058,-4.5062 -2.90213,-8.51435 -5.23889,-17.20882 -7.55498,-25.89689 -1.87722,-7.04536 -3.54188,-14.21892 -5.23268,-21.26283 -1.40582,-5.70487 -2.92948,-11.39462 -4.63282,-16.94141 -4.13625,-13.43541 -9.44692,-26.74872 -17.92113,-38.08401 -5.67118,-7.65691 -12.57335,-14.56939 -20.94187,-19.244539 -2.94604,-1.66334 -6.03744,-3.062749 -9.21122,-4.231997 -0.5382,-0.195493 -1.39666,-0.502592 -2.06378,-0.7211 -3.86143,-1.330564 -7.86191,-2.343546 -11.95922,-2.51199 -3.07376,-0.176854 -6.11791,-0.171406 -9.24653,-0.169254 z" /><path
       style="display:inline;fill:#43423d"
       d="m 492.39351,1038.6034 c -10.16067,-3.663 -20.04529,-13.069 -25.11439,-23.8984 -4.39195,-9.3828 -5.91646,-16.78067 -6.9088,-33.52588 -0.50604,-8.53924 -2.10121,-23.83924 -3.5448,-34 -1.4436,-10.16077 -2.85965,-23.95548 -3.14678,-30.65493 -0.46654,-10.8854 -0.27322,-12.9592 1.81785,-19.5 2.42699,-7.59157 3.05831,-15.48936 3.22294,-40.31919 0.0702,-10.59381 -0.19083,-12.55524 -2.22784,-16.73825 -5.9287,-12.17463 -18.85811,-17.44119 -40.47485,-16.48669 -14.7254,0.65021 -22.37576,2.9944 -29.10593,8.91854 -8.75165,7.70351 -11.09456,15.92609 -10.18507,35.74506 0.3947,8.60102 0.22592,15.02442 -0.46143,17.56134 -0.59607,2.2 -1.41795,10.075 -1.8264,17.5 -0.56645,10.29736 -1.59587,16.93988 -4.33924,28 -3.39488,13.68667 -6.62947,31.9876 -10.23006,57.88052 -2.39828,17.24668 -6.6013,26.28688 -16.54664,35.58958 -7.86292,7.3548 -14.47992,9.8993 -25.92856,9.9707 -8.71033,0.054 -9.94327,-0.1863 -14.83272,-2.8947 -14.74654,-8.1686 -20.32315,-26.6459 -14.65164,-48.5461 2.70615,-10.44962 9.60501,-26.4244 21.36365,-49.46897 6.49103,-12.72112 12.59214,-25.19859 13.55802,-27.7277 l 1.75614,-4.59839 -12.87635,-12.85247 c -36.54586,-36.47807 -60.88093,-77.57949 -66.92434,-113.03376 -2.21698,-13.00615 -1.46255,-35.52847 1.56237,-46.64203 3.89722,-14.31838 11.58882,-28.5516 23.87299,-44.17668 6.81445,-8.66777 24.79966,-54.6483 31.68302,-81 5.88779,-22.54034 6.92118,-29.5545 6.85084,-46.5 -0.058,-13.96409 -0.32739,-16.30566 -2.71893,-23.63052 -4.60046,-14.09042 -11.96273,-23.87931 -40.13945,-53.36948 -34.75815,-36.37839 -60.55544,-68.42838 -62.01043,-77.04042 -1.01787,-6.02471 -2.88492,-6.81615 -14.80722,-6.27678 -8.98704,0.40658 -10.56209,0.22259 -13.38162,-1.56325 -3.84002,-2.43219 -6.33777,-6.03001 -7.21635,-10.3946 -0.55188,-2.74165 -1.76854,-3.84819 -8.11857,-7.38376 -12.21492,-6.80102 -13.39123,-7.68141 -15.19849,-11.37502 -2.3102,-4.72148 -0.91963,-9.98822 3.53407,-13.38523 3.83203,-2.92282 15.45043,-6.18954 25.21827,-7.09054 20.89152,-1.92708 46.295,7.30885 58.22691,21.16952 4.87636,5.66461 29.75527,23.09828 49.78524,34.88654 11.21749,6.60185 28.36385,14.88761 29.16018,14.09129 0.30565,-0.30566 -1.26764,-4.28669 -3.49621,-8.84674 -7.02078,-14.36576 -9.37921,-23.47281 -9.9505,-38.42373 -0.3904,-10.21679 -0.11742,-14.87955 1.22945,-21 2.40161,-10.91346 6.70376,-21.68718 12.5332,-31.38646 2.72217,-4.52927 4.70663,-8.62783 4.40991,-9.10792 -0.29671,-0.4801 -1.80522,-0.8729 -3.35223,-0.8729 -5.3893,0 -22.62842,-5.03017 -31.06921,-9.06563 -29.20741,-13.96378 -48.44227,-42.79801 -52.0587,-78.03921 -3.42116,-33.33831 11.78345,-73.44497 37.73498,-99.53717 13.19184,-13.26335 28.88825,-22.742633 45.32372,-27.371645 10.58643,-2.981643 29.20147,-3.744674 38.39955,-1.573999 27.50961,6.492053 46.66258,29.364184 57.85355,69.087654 1.39452,4.95 3.76567,14.4 5.26922,21 3.39301,14.89398 11.08546,41.50779 12.36816,42.79048 0.60481,0.60482 4.72812,0.49124 11.27308,-0.31051 19.98709,-2.44841 41.48132,-0.0326 63.21875,7.10532 21.71373,7.13015 37.79814,16.47463 52.59522,30.55597 4.83099,4.59731 9.35738,8.35874 10.05865,8.35874 2.33777,0 8.63861,-5.32587 41.39793,-34.9922 31.98523,-28.96533 62.93843,-41.68762 89.06589,-36.6076 23.24852,4.52026 43.7402,22.38422 54.60153,47.5998 8.86453,20.57981 11.97478,45.76618 8.45903,68.5 -1.8717,12.10301 -7.64708,30.73247 -12.59672,40.63288 -24.47076,48.9471 -73.8855,71.33927 -122.89227,55.68835 -5.26437,-1.68124 -11.3027,-3.9352 -13.41852,-5.0088 -2.11583,-1.0736 -4.41589,-1.73368 -5.11126,-1.46684 -0.71159,0.27307 -1.56829,3.17198 -1.95964,6.6311 -3.17604,28.07241 -18.90866,52.99206 -42.74379,67.70395 -3.2111,1.982 -5.83681,4.10217 -5.83492,4.7115 0.002,0.60932 2.73877,4.25786 6.08195,8.10786 19.68902,22.67388 34.6523,47.82002 40.38139,67.86187 6.27378,21.94733 1.31052,43.58383 -14.0939,61.44001 -2.75267,3.19079 -4.36049,6.16532 -4.82788,8.93178 -0.87786,5.196 -6.44946,16.91876 -11.69026,24.59652 l -3.99338,5.85031 2.47839,9.65976 c 1.36312,5.31286 2.75622,11.30203 3.09579,13.30927 0.33956,2.00723 1.32114,4.23358 2.18129,4.94744 2.88077,2.39083 10.30372,13.52296 14.0029,21.00004 8.03055,16.23198 11.38027,30.95922 11.38027,50.03399 0,13.98959 -0.38105,13.70565 10.92541,8.14116 10.63668,-5.23485 22.41759,-16.95522 27.41303,-27.27215 4.64829,-9.59995 6.66156,-17.60884 6.66156,-26.5 0,-17.7591 -7.90471,-31.37361 -22.83669,-39.33227 -6.81148,-3.63048 -9.88327,-6.70449 -11.16477,-11.17283 -1.70716,-5.95252 0.9018,-11.77066 6.46115,-14.40875 10.30828,-4.8916 28.54391,1.60918 42.10018,15.00821 27.23639,26.92045 30.02566,75.36078 6.40406,111.21673 -9.58705,14.55246 -21.85639,25.67095 -38.30558,34.71256 -8.76209,4.81625 -27.54725,11.05824 -37.78437,12.55511 -7.77196,1.13641 -8.18096,1.32884 -10.20761,4.80254 -4.18352,7.17064 -13.10014,19.80153 -20.55599,29.1187 -9.60924,12.00815 -31.72301,34.65364 -41.5021,42.5 -6.04489,4.85019 -7.49042,6.54298 -7.5431,8.83339 -0.13704,5.95714 4.29409,19.32947 14.83996,44.78429 13.56425,32.74034 14.50972,36.05654 14.50682,50.88232 -0.002,9.5557 -0.38065,12.4547 -2.24045,17.1471 -2.87653,7.2576 -9.05822,14.2461 -15.54816,17.5774 -6.58067,3.3779 -19.62213,4.1978 -26.62335,1.6739 z m 20.88487,-13.2039 c 3.83194,-1.7552 8.59751,-8.5766 10.25502,-14.6791 1.33282,-4.9071 0.57176,-15.29617 -1.73855,-23.73265 -0.94629,-3.45551 -4.84553,-13.93275 -8.66499,-23.28275 -11.04372,-27.03493 -13.68494,-34.1964 -16.56808,-44.923 l -2.70854,-10.077 -6.60652,-0.0195 c -5.45745,-0.0161 -7.69173,-0.57919 -12.84582,-3.23736 -3.43161,-1.76982 -6.57345,-3.01133 -6.98188,-2.75891 -2.13076,1.31689 -1.74472,13.98655 1.02123,33.51577 1.5969,11.275 3.57689,29.11404 4.39998,39.6423 1.69503,21.68131 2.56732,26.4785 6.07237,33.3954 7.71938,15.2334 21.86348,21.8832 34.36578,16.1568 z m -188.10275,-4.7408 c 8.95638,-3.7249 15.61527,-10.66 18.74038,-19.5175 0.79285,-2.24715 2.60649,-12.47162 4.03031,-22.72103 2.70139,-19.44601 5.4881,-34.19774 9.94307,-52.63474 3.04576,-12.60496 4.16872,-20.58675 2.89341,-20.56587 -0.48911,0.008 -2.91429,0.72761 -5.38929,1.59912 -3.36119,1.18357 -6.35041,1.42099 -11.81186,0.93814 l -7.31187,-0.64643 -1.65702,4.29731 c -0.91136,2.36351 -7.76569,16.6723 -15.23185,31.7973 -7.46616,15.125 -15.09929,32 -16.96251,37.5 -5.60204,16.53652 -4.63128,30.1226 2.62093,36.6808 5.40075,4.8838 13.21075,6.1533 20.1363,3.2729 z M 498.25407,893.27614 c 5.75705,-2.93703 14.99428,-10.86061 28.03458,-24.04771 53.27596,-53.87572 70.63066,-108.42017 48.95036,-153.84714 -1.66037,-3.47901 -5.96573,-10.2294 -9.56746,-15.00088 -7.09307,-9.39671 -7.32996,-9.91592 -9.76647,-21.40586 -0.90161,-4.25175 -2.06363,-7.9927 -2.58226,-8.31323 -0.51863,-0.32054 -2.35399,0.42196 -4.07859,1.64998 -10.30055,7.33463 -26.32676,9.21265 -36.84346,4.31747 -11.59646,-5.39777 -18.00726,-13.07141 -18.00726,-21.55445 0,-6.23269 1.35748,-9.58535 5.6845,-14.03945 l 3.56542,-3.67014 -2.18629,-3.07036 c -7.1941,-10.10319 -0.59004,-20.89397 18.06123,-29.51139 4.07419,-1.8824 8.67063,-3.73953 10.21431,-4.12697 3.37799,-0.84782 4.66083,-3.75672 4.66083,-10.5687 0,-8.04082 -2.77909,-18.03601 -7.04405,-25.33444 -4.65492,-7.96577 -5.05026,-11.78474 -1.46324,-14.13505 3.88524,-2.54571 6.8339,-1.13434 11.11963,5.32239 6.99564,10.53939 10.38766,21.57467 10.38766,33.79429 0,6.65135 0.60794,7.4705 5.54427,7.4705 4.85753,0 13.00502,3.96506 17.44634,8.49044 2.43419,2.48026 4.79192,4.50956 5.2394,4.50956 1.65174,0 8.86176,-12.5573 10.78475,-18.7832 2.4101,-7.80302 2.60795,-19.40583 0.47082,-27.61086 -3.56855,-13.70057 -13.09969,-31.9995 -25.2975,-48.5689 -7.00804,-9.51967 -20.26701,-24.90537 -22.61659,-26.24428 -0.6826,-0.38898 -4.35294,0.37087 -8.15629,1.68855 -10.36836,3.59215 -26.26595,6.53045 -39.0354,7.21478 -10.10337,0.54145 -11.60875,0.40669 -13.3819,-1.19799 -2.77934,-2.51527 -2.57066,-6.90241 0.44101,-9.27139 1.89549,-1.49099 4.73639,-2.05308 12.75,-2.52268 48.25697,-2.82785 84.08019,-27.40459 93.79345,-64.34756 4.51015,-17.15369 4.80955,-29.29875 1.3491,-54.72719 l -1.75151,-12.87072 2.32081,-1.87928 c 2.9225,-2.3665 5.259,-2.38025 8.13935,-0.0479 1.76851,1.43206 2.65549,3.99415 4.06777,11.75 0.99336,5.45524 1.82546,12.5276 1.84911,15.71636 0.0531,7.15673 1.57194,8.79652 13.58305,14.66456 13.05757,6.3793 21.63583,8.32585 36.95996,8.38684 14.69982,0.0585 22.98349,-1.7398 36.25097,-7.86976 52.24392,-24.13817 74.11334,-103.4552 42.54932,-154.31982 -8.93539,-14.39917 -23.12304,-25.25595 -37.4034,-28.62213 -12.97282,-3.05796 -25.38035,-1.27788 -40.27609,5.77829 -15.67767,7.42659 -26.92698,15.74027 -49.6208,36.67173 -18.54968,17.10914 -33.94412,29.37876 -39.32244,31.3406 -2.77221,1.01122 -5.33662,-0.75984 -15.67756,-10.8274 -18.31024,-17.82618 -41.94306,-30.00018 -70.18463,-36.1543 -10.7026,-2.33221 -36.54489,-2.3731 -48.31537,-0.0765 -11.53033,2.24979 -12.08791,1.8592 -16.80626,-11.77295 -4.10234,-11.85235 -8.6227,-28.18856 -13.62388,-49.23555 -4.30847,-18.1318 -7.28929,-26.9755 -13.18963,-39.13199 -4.23368,-8.72265 -6.33795,-11.69275 -13.24234,-18.691 -9.4568,-9.58537 -16.68886,-13.59161 -27.97072,-15.49455 -23.37134,-3.942084 -48.77753,5.88697 -69.69516,26.96341 -9.6397,9.71289 -15.12628,17.54035 -21.44367,30.59273 -8.34706,17.24592 -11.53152,30.87652 -11.52134,49.31538 0.009,16.22156 2.26383,26.10317 9.12417,39.98522 12.16948,24.62525 35.61419,40.39714 64.34864,43.28909 l 10.73776,1.08069 10.74177,-10.58519 c 8.04916,-7.93183 11.388,-10.58519 13.31979,-10.58519 3.47606,0 5.72087,2.47344 5.72087,6.30354 0,2.65076 -1.52054,4.69622 -9.42492,12.67857 -35.89021,36.24425 -45.44262,70.1616 -29.66304,105.32338 7.24573,16.14572 23.83232,35.42875 42.08796,48.93008 7.20551,5.32899 8.54705,6.77066 8.80896,9.46643 0.42125,4.3358 -2.90542,7.74141 -6.64562,6.80332 -3.80783,-0.95506 -16.35416,-10.23175 -26.26917,-19.4233 -7.87004,-7.29579 -9.20165,-8.11635 -17.90073,-11.03082 -18.40896,-6.16756 -49.5449,-22.81911 -70.15103,-37.51687 -8.12135,-5.79272 -8.90239,-5.81586 -10.21897,-0.30267 -0.88898,3.72259 -6.11752,9.46959 -10.77876,11.84758 -2.11457,1.07878 -3.84468,2.35576 -3.84468,2.83774 0,1.08603 8.86519,12.64152 18.8597,24.58302 10.56986,12.62893 22.04509,25.19792 40.91971,44.81996 22.76831,23.66992 31.15444,35.41497 35.81035,50.15355 9.53572,30.18586 2.95353,69.89979 -21.88206,132.02649 -10.4236,26.07485 -11.55621,28.39644 -16.47301,33.76586 -23.61821,25.79241 -29.67829,60.40503 -17.1646,98.03699 5.99094,18.01634 19.71027,41.82615 35.5502,61.69715 3.72663,4.675 12.87409,14.60924 20.32769,22.07609 18.34861,18.3812 25.32123,21.70967 35.65095,17.01848 2.25441,-1.02383 5.17941,-3.37645 6.5,-5.22804 2.28675,-3.20624 2.42831,-4.31876 2.97318,-23.36653 0.62852,-21.97196 1.42976,-25.55529 7.7771,-34.78084 9.44192,-13.72336 29.51288,-21.66436 51.6099,-20.41927 21.54502,1.21399 36.39385,8.82732 43.81691,22.46593 5.04639,9.27187 6.06146,15.82361 5.30398,34.23418 -0.65929,16.02393 -0.61127,16.62984 1.66432,21 4.50445,8.65062 14.65358,11.15371 24.61624,6.07114 z m -71.86056,-449.0629 c -4.125,-1.09532 -11.325,-3.86289 -16,-6.15014 -15.45634,-7.56204 -33.05983,-28.16575 -30.41139,-35.59452 2.39643,-6.72189 8.47796,-5.41685 12.83427,2.75409 7.0707,13.26223 23.27338,24.18709 40.96872,27.62369 7.56345,1.46889 10.36595,1.56321 18.7619,0.63143 9.80363,-1.08801 14.17825,-2.65856 26.1606,-9.39206 3.10819,-1.74665 4.25984,-1.94025 6.22242,-1.04604 2.81148,1.28099 4.07896,5.14675 2.59601,7.91768 -1.70676,3.1891 -11.24523,9.13542 -19.18893,11.96244 -10.32748,3.67537 -30.61691,4.30105 -41.9436,1.29343 z m 95.4,-9.40824 c -3.81467,-3.81466 -4.38142,-7.40185 -1.57126,-9.94501 5.11421,-4.6283 13.11083,0.82672 12.23311,8.34501 -0.22115,1.89425 -3.80681,5 -5.77264,5 -0.81906,0 -3.01921,-1.53 -4.88921,-3.4 z m -16.76514,-22.67258 c -1.57739,-1.24077 -2.63486,-3.06504 -2.63486,-4.54545 0,-3.01639 4.13969,-7.38197 7,-7.38197 2.88952,0 7,4.37739 7,7.45455 0,3.1961 -3.25709,6.54545 -6.36514,6.54545 -1.30083,0 -3.55083,-0.93266 -5,-2.07258 z m 28.4202,-4.58455 c -3.53575,-4.49497 -0.64069,-9.34287 5.57936,-9.34287 5.51037,0 8.48159,6.77506 4.53684,10.34501 -2.86084,2.58903 -7.6658,2.11303 -10.1162,-1.00214 z M 432.89351,398.3304 c -8.1005,-3.70734 -15.74936,-13.72488 -17.17162,-22.48928 -0.89528,-5.51694 0.30835,-8.49524 4.17918,-10.34111 3.01306,-1.43683 4.30868,-1.49031 10.128,-0.41806 9.12098,1.6806 24.98349,6.80163 29.97729,9.67781 11.03483,6.35552 6.72065,16.00932 -10.27782,22.99858 -6.99258,2.87514 -11.47037,3.0273 -16.83503,0.57206 z m -86.31463,-15.80922 c -2.1915,-0.87673 -3.33048,-5.17522 -2.02217,-7.63165 2.62688,-4.93215 8.30207,-6.21926 11.8368,-2.68453 5.4898,5.4898 -2.05522,13.4204 -9.81463,10.31618 z m 24.86111,-11.49666 c -2.74181,-2.94299 -2.30426,-6.55855 1.09989,-9.0885 3.33149,-2.47596 7.6409,-1.33923 9.85363,2.59916 1.33632,2.37848 1.33289,2.96991 -0.0314,5.41982 -2.11347,3.7952 -7.85861,4.35778 -10.9221,1.06952 z m 146.54723,-4.86079 c -1.59846,-0.47814 -4.41965,-2.33617 -6.26932,-4.12894 -12.67799,-12.28799 1.81555,-31.92098 17.61468,-23.86087 11.01192,5.61786 10.8036,22.06469 -0.34361,27.1272 -4.46031,2.02565 -6.56264,2.19049 -11.00175,0.86261 z M 350.2006,351.455 c -0.82658,-0.9625 -1.79955,-2.27474 -2.16214,-2.91608 -1.18562,-2.09711 1.12026,-5.99402 4.33461,-7.32545 2.79766,-1.15883 3.44663,-1.08177 5.83413,0.69273 3.26315,2.42533 4.00154,6.74051 1.60628,9.38724 -2.19061,2.42059 -7.59484,2.51142 -9.61288,0.16156 z m 232.57411,-25.79096 c -2.34975,-3.58617 -0.78359,-6.42128 6.05461,-10.96021 10.63125,-7.05663 15.69732,-14.68494 25.94758,-39.07102 14.77644,-35.15415 37.12401,-54.41664 65.11661,-56.12728 7.85174,-0.47982 9.27598,-0.31081 11.1631,1.32474 3.27247,2.8362 3.68756,5.65922 1.28184,8.7176 -1.862,2.36714 -2.76864,2.65713 -8.30742,2.65713 -13.82147,0 -25.82458,5.22837 -36.73223,16 -9.00653,8.89422 -13.86844,16.89541 -21.97262,36.16004 -9.20009,21.86978 -15.20334,30.55902 -27.29268,39.50407 -7.20118,5.32824 -12.53274,5.9554 -15.25879,1.79493 z m -189.97666,-0.36292 c -11.14257,-5.0604 -11.37831,-21.82114 -0.38461,-27.34456 10.56887,-5.30999 21.97259,1.82543 21.97259,13.74844 0,6.52933 -2.7494,11.03322 -8.26318,13.53618 -5.29272,2.40262 -8.13826,2.41542 -13.3248,0.0599 z m -23.87569,-65.47636 c -4.45472,-4.45472 -8.08629,-21.61478 -7.0091,-33.11976 0.36047,-3.85 1.94925,-12.49086 3.53062,-19.20191 5.19926,-22.06468 5.75716,-33.6874 2.28825,-47.6705 -2.79579,-11.26979 -7.00863,-18.49261 -15.99315,-27.41991 -6.68097,-6.63843 -8.34547,-8.87763 -8.34547,-11.22695 0,-3.532 3.8116,-6.49657 7.24271,-5.6332 4.27297,1.07522 14.14534,10.13352 19.29359,17.70264 9.52777,14.00806 14.41572,33.13993 13.05888,51.1137 -0.36074,4.77862 -2.2855,15.13414 -4.27724,23.01226 -4.49376,17.77454 -4.94989,30.30982 -1.4855,40.82387 2.6567,8.0628 2.67664,9.49092 0.16756,12 -2.65601,2.65601 -5.5655,2.52541 -8.47115,-0.38024 z m 230.31761,545.35557 c 24.56486,-6.80727 47.11818,-25.02709 58.1572,-46.98261 6.95709,-13.83697 8.49634,-20.53879 8.49634,-36.99272 0,-12.40384 -0.33855,-15.58422 -2.34186,-22 -3.67222,-11.76055 -8.82888,-20.74066 -16.12104,-28.0741 -11.69829,-11.76451 -30.31531,-18.62025 -27.60875,-10.16695 0.3066,0.95758 3.13219,3.08427 6.2791,4.72597 12.35693,6.44649 22.22507,18.71346 25.81998,32.09654 2.09993,7.81757 2.093,24.23553 -0.0137,32.36539 -6.35083,24.50865 -23.51608,42.23767 -50.41187,52.06757 l -7.3981,2.70387 -3.84269,10.89086 c -2.11348,5.98997 -3.84683,11.00335 -3.8519,11.14085 -0.032,0.86761 6.62145,-0.0522 12.83725,-1.77467 z M 539.185,663.3216 c 12.81268,-6.56706 28.71586,-30.83436 26.61382,-40.6111 -2.16493,-10.06933 -10.10773,-14.60177 -21.80063,-12.44022 -6.81616,1.26004 -21.63481,7.02712 -26.74377,10.40807 -5.30212,3.50878 -5.30017,6.52665 0.004,6.52665 4.62685,0 9.13486,3.15049 9.13486,6.38402 0,2.80789 -2.07833,5.04547 -10.27976,11.06737 -3.57697,2.6264 -7.09148,5.87376 -7.81001,7.21635 -2.00658,3.74933 1.06759,8.63126 7.48916,11.89317 4.40603,2.23809 6.05384,2.53401 12.10061,2.17309 4.56206,-0.27231 8.49463,-1.18389 11.29149,-2.6174 z M 221.02647,394.43277 c 6.74498,-5.46365 5.58754,-15.18207 -2.69985,-22.66923 -8.85643,-8.00126 -22.90734,-12.55854 -38.72019,-12.55854 -10.27102,0 -19.21292,1.44629 -19.21292,3.10756 0,0.47856 3.4875,2.62926 7.75,4.77931 9.15595,4.61838 11.89963,7.2834 13.01948,12.64625 l 0.82836,3.96688 h 10.95108 c 12.74637,0 16.08495,1.33528 20.7662,8.30548 3.10765,4.62717 4.16414,4.97688 7.31784,2.42229 z"
       id="path17"
       inkscape:label="mouse-outline" /></g></svg>
